<svg xmlns="http://www.w3.org/2000/svg" width="70" height="50" fill="none" viewBox="0 0 70 50"><path fill="#4f4f4f" d="M39.28 3.798 23.7 15.47H12v18.9h11.7l15.58 11.672Zm11.148 5.541a1.05 1.05 0 0 0-.63.263 1.12 1.12 0 0 0-.35.603c-.051.235-.027.481.068.701.096.22.257.401.46.518 3.264 1.93 5.885 7.185 5.885 13.496S53.24 36.47 49.977 38.4a1.1 1.1 0 0 0-.496.675c-.073.285-.034.587.107.842s.374.441.648.518c.273.077.565.039.81-.107C55.28 37.824 58 31.853 58 24.92S55.279 12 51.047 9.495a1.04 1.04 0 0 0-.618-.156m-5.583 4.447c-.233.01-.456.1-.635.255a1.12 1.12 0 0 0-.358.602c-.053.237-.03.484.064.706.095.221.257.404.461.521 2.01 1.235 3.761 4.765 3.761 9.05s-1.751 7.798-3.76 9.033a1.1 1.1 0 0 0-.316.289 1.14 1.14 0 0 0-.21.83q.028.22.136.412.11.192.28.327a1.06 1.06 0 0 0 .799.215c.14-.02.275-.07.397-.145 2.987-1.835 4.814-6.077 4.814-10.96s-1.827-9.143-4.814-10.979a1.04 1.04 0 0 0-.619-.156"/></svg>