<svg width="161" height="25" viewBox="0 0 161 25" fill="none" xmlns="http://www.w3.org/2000/svg">
<mask id="path-1-inside-1_41498_97" fill="white">
<path fill-rule="evenodd" clip-rule="evenodd" d="M7.15845 19.1783C4.41076 19.1783 2.53349 16.9504 2.53349 14.0513C2.53349 11.1213 4.46124 8.88179 7.20347 8.88179C8.41223 8.88179 9.68648 9.31549 10.6633 10.037L11.7629 8.38485C10.4887 7.33287 8.70419 6.75202 7.01247 6.75202C3.02464 6.75202 0 9.92086 0 14.1055C0 18.2102 2.92914 21.3377 6.92515 21.3377C8.63052 21.3377 10.5269 20.762 11.782 19.7281L10.6633 18.0334C9.73287 18.7136 8.41223 19.1783 7.15708 19.1783H7.15845ZM25.6719 11.3588C25.6719 8.80435 23.8751 6.94564 20.785 6.94564H15.8626V21.1312H18.3184V15.8132H20.358L23.313 21.1364H26.2217L22.8656 15.4699C24.6323 14.8155 25.6733 13.2924 25.6733 11.3588H25.6719ZM34.0623 6.94564L29.0826 21.126H31.6448L32.8017 17.5635H38.0979L39.2685 21.126H41.9643L36.9164 6.94822H34.0514L34.0623 6.94564ZM55.082 8.70109V6.95467H45.199V9.01733H51.9455L44.9548 19.4184V21.1377H55.187V19.0505H48.0654L55.1052 8.70496L55.082 8.70109ZM64.5843 12.8871L61.1735 6.95338H58.3222L63.2882 15.2311V21.1299H65.7576V15.2182L70.8205 6.94564H68.1519L64.5856 12.8832L64.5843 12.8871ZM81.7335 13.628C82.8112 13.06 83.4252 12.0313 83.4252 10.6334C83.4252 8.30998 81.7471 6.95467 78.9503 6.95467H74.3117V21.1338H79.7279C82.4702 21.1338 84.2983 19.4687 84.2983 17.1195C84.2983 15.3227 83.2069 14.0436 81.7062 13.628H81.7335ZM92.7719 6.95467L87.7923 21.1338H90.3517L91.5113 17.5713H96.8048L97.9781 21.1338H100.679L95.6411 6.95467H92.7856H92.7719ZM112.532 13.628C113.613 13.06 114.234 12.0313 114.234 10.6334C114.234 8.30998 112.569 6.95467 109.759 6.95467H105.12V21.1338H110.55C113.292 21.1338 115.134 19.4687 115.134 17.1195C115.134 15.3227 114.043 14.0436 112.556 13.628H112.532ZM124.17 12.8871L120.773 6.95467H117.908L122.874 15.2324V21.1351H125.35V15.2195L130.398 6.95467H127.737L124.163 12.8883L124.17 12.8871ZM107.577 9.03411H109.46C110.838 9.03411 111.775 9.5659 111.775 10.8696C111.775 12.221 110.807 12.8574 109.579 12.8574H107.573V9.03411H107.577ZM110.19 19.0427H107.575V14.8477H110.013C111.577 14.8477 112.605 15.5189 112.605 16.9517C112.605 18.3844 111.577 19.0427 110.187 19.0427H110.19ZM92.158 15.5615L94.1499 9.46135L96.169 15.5538H92.158V15.5615ZM76.777 9.03411H78.6597C80.0376 9.03411 80.9735 9.5659 80.9735 10.8696C80.9735 12.221 80.0049 12.8574 78.7825 12.8574H76.777V9.03411ZM79.3896 19.0427H76.7838V14.8477H79.2259C80.7948 14.8477 81.818 15.5189 81.818 16.9517C81.818 18.3844 80.7948 19.0427 79.4032 19.0427H79.3896ZM33.4538 15.5615L35.4457 9.46135L37.4649 15.5538H33.4538V15.5615ZM20.4644 13.7157H18.3225V9.04314H20.4644C22.1111 9.04314 23.1793 9.83438 23.1793 11.3923C23.1793 12.8806 22.2107 13.7131 20.4644 13.7131V13.7157ZM152.794 3.54962C151.791 3.22693 151.397 2.52991 150.827 1.76836C150.213 0.950591 149.346 0.332819 148.346 0C148.818 1.44566 147.915 3.0075 146.391 3.43345C143.692 4.12041 141.346 5.70683 139.784 7.90067C138.223 10.0945 137.552 12.7481 137.894 15.373C138.237 17.9978 139.57 20.4173 141.649 22.1859C143.727 23.9546 146.411 24.9533 149.206 24.9984C152.001 25.0435 154.719 24.1318 156.86 22.4312C159.001 20.7306 160.421 18.3555 160.857 15.7432C161.294 13.131 160.719 10.4573 159.238 8.21435C157.756 5.97145 155.469 4.3103 152.795 3.53671L152.794 3.54962ZM149.413 21.1441C148.029 21.1441 146.702 20.624 145.723 19.698C144.745 18.7721 144.195 17.5163 144.195 16.2069C144.195 14.8975 144.745 13.6417 145.723 12.7158C146.702 11.7899 148.029 11.2697 149.413 11.2697C150.797 11.2697 152.125 11.7899 153.103 12.7158C154.082 13.6417 154.632 14.8975 154.632 16.2069C154.632 17.5163 154.082 18.7721 153.103 19.698C152.125 20.624 150.797 21.1441 149.413 21.1441Z"/>
</mask>
<path fill-rule="evenodd" clip-rule="evenodd" d="M7.15845 19.1783C4.41076 19.1783 2.53349 16.9504 2.53349 14.0513C2.53349 11.1213 4.46124 8.88179 7.20347 8.88179C8.41223 8.88179 9.68648 9.31549 10.6633 10.037L11.7629 8.38485C10.4887 7.33287 8.70419 6.75202 7.01247 6.75202C3.02464 6.75202 0 9.92086 0 14.1055C0 18.2102 2.92914 21.3377 6.92515 21.3377C8.63052 21.3377 10.5269 20.762 11.782 19.7281L10.6633 18.0334C9.73287 18.7136 8.41223 19.1783 7.15708 19.1783H7.15845ZM25.6719 11.3588C25.6719 8.80435 23.8751 6.94564 20.785 6.94564H15.8626V21.1312H18.3184V15.8132H20.358L23.313 21.1364H26.2217L22.8656 15.4699C24.6323 14.8155 25.6733 13.2924 25.6733 11.3588H25.6719ZM34.0623 6.94564L29.0826 21.126H31.6448L32.8017 17.5635H38.0979L39.2685 21.126H41.9643L36.9164 6.94822H34.0514L34.0623 6.94564ZM55.082 8.70109V6.95467H45.199V9.01733H51.9455L44.9548 19.4184V21.1377H55.187V19.0505H48.0654L55.1052 8.70496L55.082 8.70109ZM64.5843 12.8871L61.1735 6.95338H58.3222L63.2882 15.2311V21.1299H65.7576V15.2182L70.8205 6.94564H68.1519L64.5856 12.8832L64.5843 12.8871ZM81.7335 13.628C82.8112 13.06 83.4252 12.0313 83.4252 10.6334C83.4252 8.30998 81.7471 6.95467 78.9503 6.95467H74.3117V21.1338H79.7279C82.4702 21.1338 84.2983 19.4687 84.2983 17.1195C84.2983 15.3227 83.2069 14.0436 81.7062 13.628H81.7335ZM92.7719 6.95467L87.7923 21.1338H90.3517L91.5113 17.5713H96.8048L97.9781 21.1338H100.679L95.6411 6.95467H92.7856H92.7719ZM112.532 13.628C113.613 13.06 114.234 12.0313 114.234 10.6334C114.234 8.30998 112.569 6.95467 109.759 6.95467H105.12V21.1338H110.55C113.292 21.1338 115.134 19.4687 115.134 17.1195C115.134 15.3227 114.043 14.0436 112.556 13.628H112.532ZM124.17 12.8871L120.773 6.95467H117.908L122.874 15.2324V21.1351H125.35V15.2195L130.398 6.95467H127.737L124.163 12.8883L124.17 12.8871ZM107.577 9.03411H109.46C110.838 9.03411 111.775 9.5659 111.775 10.8696C111.775 12.221 110.807 12.8574 109.579 12.8574H107.573V9.03411H107.577ZM110.19 19.0427H107.575V14.8477H110.013C111.577 14.8477 112.605 15.5189 112.605 16.9517C112.605 18.3844 111.577 19.0427 110.187 19.0427H110.19ZM92.158 15.5615L94.1499 9.46135L96.169 15.5538H92.158V15.5615ZM76.777 9.03411H78.6597C80.0376 9.03411 80.9735 9.5659 80.9735 10.8696C80.9735 12.221 80.0049 12.8574 78.7825 12.8574H76.777V9.03411ZM79.3896 19.0427H76.7838V14.8477H79.2259C80.7948 14.8477 81.818 15.5189 81.818 16.9517C81.818 18.3844 80.7948 19.0427 79.4032 19.0427H79.3896ZM33.4538 15.5615L35.4457 9.46135L37.4649 15.5538H33.4538V15.5615ZM20.4644 13.7157H18.3225V9.04314H20.4644C22.1111 9.04314 23.1793 9.83438 23.1793 11.3923C23.1793 12.8806 22.2107 13.7131 20.4644 13.7131V13.7157ZM152.794 3.54962C151.791 3.22693 151.397 2.52991 150.827 1.76836C150.213 0.950591 149.346 0.332819 148.346 0C148.818 1.44566 147.915 3.0075 146.391 3.43345C143.692 4.12041 141.346 5.70683 139.784 7.90067C138.223 10.0945 137.552 12.7481 137.894 15.373C138.237 17.9978 139.57 20.4173 141.649 22.1859C143.727 23.9546 146.411 24.9533 149.206 24.9984C152.001 25.0435 154.719 24.1318 156.86 22.4312C159.001 20.7306 160.421 18.3555 160.857 15.7432C161.294 13.131 160.719 10.4573 159.238 8.21435C157.756 5.97145 155.469 4.3103 152.795 3.53671L152.794 3.54962ZM149.413 21.1441C148.029 21.1441 146.702 20.624 145.723 19.698C144.745 18.7721 144.195 17.5163 144.195 16.2069C144.195 14.8975 144.745 13.6417 145.723 12.7158C146.702 11.7899 148.029 11.2697 149.413 11.2697C150.797 11.2697 152.125 11.7899 153.103 12.7158C154.082 13.6417 154.632 14.8975 154.632 16.2069C154.632 17.5163 154.082 18.7721 153.103 19.698C152.125 20.624 150.797 21.1441 149.413 21.1441Z" fill="black" stroke="black" stroke-width="2" mask="url(#path-1-inside-1_41498_97)"/>
</svg>
